<svg xmlns="http://www.w3.org/2000/svg" viewBox="0 0 28.18 27.54"><title>topographic1</title><g id="Layer_2" data-name="Layer 2"><g id="Layer_1-2" data-name="Layer 1"><path d="M13.72.56l.08.07.07.07a2.06,2.06,0,0,0,1.3.6h0a1.19,1.19,0,0,0,1-.59A2.44,2.44,0,0,0,16.49,0h0a2.48,2.48,0,0,1-.33.71,1.18,1.18,0,0,1-1,.58h0a2.06,2.06,0,0,1-1.29-.6L13.8.62,13.73.55c-.19-.17-.4-.33-.61-.48L13,0h0l.1.08C13.32.23,13.53.39,13.72.56Z"/><path d="M.86,1.81A3.12,3.12,0,0,0,1.61.89,2.92,2.92,0,0,0,1.84,0h0A2.9,2.9,0,0,1,1.6.89a3.12,3.12,0,0,1-.76.92A2.7,2.7,0,0,0,0,2.92V3l0-.08A2.7,2.7,0,0,1,.86,1.81Z"/><path d="M15.07.69h0a.65.65,0,0,0,.39-.14.92.92,0,0,0,.23-.27l.08-.12A1.43,1.43,0,0,0,15.83,0h0l-.06.16-.08.12a.91.91,0,0,1-.23.26.63.63,0,0,1-.39.14h0a1.76,1.76,0,0,1-1-.61L14,0h0L14,.09A1.77,1.77,0,0,0,15.07.69Z"/><path d="M.24,4.1a5,5,0,0,1,.22-.88,3.47,3.47,0,0,1,.83-1.05,6.8,6.8,0,0,0,.62-.67A3.7,3.7,0,0,0,2.43.64c.08-.18.14-.39.21-.59l0-.05h0l0,0c-.06.2-.13.41-.21.59a3.68,3.68,0,0,1-.52.86,7.13,7.13,0,0,1-.62.66A3.48,3.48,0,0,0,.44,3.21a5,5,0,0,0-.22.89A5.7,5.7,0,0,1,0,5H0V5A5.55,5.55,0,0,0,.24,4.1Z"/><path d="M1.3,8.31a2.15,2.15,0,0,1,1.23.87,1.53,1.53,0,0,1-.17.69,2.09,2.09,0,0,0-.2,1.24,1.91,1.91,0,0,0,.6,1c.12.13.24.27.36.42a5.57,5.57,0,0,1,.68,1.25c.16.39.29.7.72.8a7.37,7.37,0,0,0,.86.13l.37,0a1.74,1.74,0,0,0,.49-.06A1.52,1.52,0,0,0,7,14.06l.22-.28.2-.22a1.62,1.62,0,0,0,.37-.46.38.38,0,0,0,0-.15.72.72,0,0,1,0-.14h0a3.65,3.65,0,0,0-.53-.53,1.93,1.93,0,0,1-.71-.95,1.16,1.16,0,0,1,.06-.73,2.24,2.24,0,0,1,.71-.87l.5-.4a15,15,0,0,0,2.25-2h0a.6.6,0,0,0,0-.26,2,2,0,0,0-.57-.86,2.23,2.23,0,0,0-.86-.54l-.1,0a2.83,2.83,0,0,0-1,0,3.09,3.09,0,0,1-.84.05A1.34,1.34,0,0,1,5.48,4.66c-.2-.79.34-1.29.87-1.78a2.55,2.55,0,0,0,.89-1.21A2.82,2.82,0,0,0,7.12.39C7.09.26,7,.13,7,0H7c0,.13.09.26.12.4a2.82,2.82,0,0,1,.12,1.27,2.52,2.52,0,0,1-.89,1.21c-.52.49-1.07,1-.87,1.79A1.35,1.35,0,0,0,6.63,5.75a3.11,3.11,0,0,0,.85,0,2.82,2.82,0,0,1,1,0l.1,0A2.43,2.43,0,0,1,10,7.09a.58.58,0,0,1,0,.26,15,15,0,0,1-2.24,2l-.5.4a2.24,2.24,0,0,0-.71.88,1.18,1.18,0,0,0-.07.73,2,2,0,0,0,.72,1,3.69,3.69,0,0,1,.52.52.81.81,0,0,0,0,.14.32.32,0,0,1,0,.15,1.6,1.6,0,0,1-.37.46l-.2.22L7,14a1.51,1.51,0,0,1-.7.62,2.23,2.23,0,0,1-.86,0,7.74,7.74,0,0,1-.86-.13c-.42-.1-.55-.41-.71-.79a5.61,5.61,0,0,0-.68-1.25c-.12-.15-.24-.29-.36-.42a1.9,1.9,0,0,1-.6-1,2.08,2.08,0,0,1,.2-1.23,1.56,1.56,0,0,0,.17-.7h0A2.15,2.15,0,0,0,1.31,8.3a2.42,2.42,0,0,0-.39-.13A5.4,5.4,0,0,0,0,8.05H0a5.27,5.27,0,0,1,.91.12A2.39,2.39,0,0,1,1.3,8.31Z"/><path d="M7.93.38c0,.13.08.27.12.4a5.57,5.57,0,0,1,.2.81,1.61,1.61,0,0,1,0,.48,2.1,2.1,0,0,1-.57,1,1.91,1.91,0,0,0-.6,1.14c0,.42.5.48,1,.55l.28,0a6.51,6.51,0,0,1,1.22.34c.15.06.3.13.44.2a2.46,2.46,0,0,0,.82.29H11a1.55,1.55,0,0,0,.53-.11l.41-.17A2.68,2.68,0,0,1,12.83,5H13a3.68,3.68,0,0,1,1.14.22,2.94,2.94,0,0,0,.88.18h.17a1.39,1.39,0,0,0,1.05-.71,4.58,4.58,0,0,0,.47-1.3,5.07,5.07,0,0,0,.11-.56.47.47,0,0,0-.08-.38c-.14-.16-.41-.17-.72-.18l-.44,0a6.24,6.24,0,0,1-1.72-.4c-.47-.2-.95-.44-1.26-.62A4.31,4.31,0,0,1,11.09,0h0a4.3,4.3,0,0,0,1.56,1.26,14,14,0,0,0,1.26.62,6.34,6.34,0,0,0,1.72.4l.44,0c.31,0,.58,0,.72.17a.46.46,0,0,1,.08.37,5.34,5.34,0,0,1-.11.56c-.22.9-.53,1.88-1.52,2h-.17a3,3,0,0,1-.88-.18A3.69,3.69,0,0,0,13,5h-.21a2.67,2.67,0,0,0-.93.27l-.41.17a1.56,1.56,0,0,1-.52.11h-.11A2.45,2.45,0,0,1,10,5.28a4.6,4.6,0,0,0-.44-.2,6.48,6.48,0,0,0-1.22-.34l-.28,0c-.5-.06-1-.12-1-.53A1.91,1.91,0,0,1,7.69,3a2.11,2.11,0,0,0,.57-1,1.72,1.72,0,0,0,0-.49,5.68,5.68,0,0,0-.2-.81L7.94.38,7.87.11l0-.11h0l0,.12Z"/><path d="M.91.87A1.49,1.49,0,0,0,1.16,0h0A1.49,1.49,0,0,1,.9.86a2,2,0,0,1-.67.58L0,1.59v0l.24-.16A2.06,2.06,0,0,0,.91.87Z"/><path d="M8.78,1.17A2.13,2.13,0,0,1,9,1.72a1.48,1.48,0,0,1-.45,1.19,1.69,1.69,0,0,0-.4.69.52.52,0,0,0,0,.16s0,.06,0,.1h0a.81.81,0,0,0,.42.39,8,8,0,0,0,2.14.5l.3,0h0a4.16,4.16,0,0,0,.75-.09,4.76,4.76,0,0,1,.88-.1H13l.29,0a4.5,4.5,0,0,1,.69.12,3.83,3.83,0,0,0,.92.12H15a1,1,0,0,0,.7-.8A1,1,0,0,0,15.46,3a5.54,5.54,0,0,0-2.18-.63h-.35l-.4,0a2,2,0,0,1-1.19-.57A5,5,0,0,1,10.19.26,1.68,1.68,0,0,1,10.07,0h0a1.72,1.72,0,0,0,.12.27,5,5,0,0,0,1.16,1.47,2,2,0,0,0,1.19.57l.4,0h.35A5.55,5.55,0,0,1,15.46,3,1,1,0,0,1,15.72,4a1,1,0,0,1-.69.79h-.12A3.87,3.87,0,0,1,14,4.73a4.53,4.53,0,0,0-.7-.12l-.29,0h-.39a4.69,4.69,0,0,0-.88.1,4.15,4.15,0,0,1-.75.09h0l-.3,0a8,8,0,0,1-2.14-.5.79.79,0,0,1-.41-.38s0-.07,0-.1a.44.44,0,0,1,0-.15,1.71,1.71,0,0,1,.39-.69A1.48,1.48,0,0,0,9,1.72a2.13,2.13,0,0,0-.19-.55L8.7,1a6,6,0,0,1-.3-1h0a6.18,6.18,0,0,0,.3,1Z"/><path d="M1.35,6.44c.18-.2.34-.42.51-.64a6.2,6.2,0,0,1,.91-1l.07-.07.07-.07a5.41,5.41,0,0,1,.76-.53c.18-.11.37-.23.54-.35l.41-.31c.2-.16.42-.32.63-.47l.32-.21C6.12,2.4,6.73,2,6.83,1.29A2.42,2.42,0,0,0,6.57,0h0a2.43,2.43,0,0,1,.26,1.29c-.09.7-.71,1.09-1.25,1.44l-.32.21c-.21.15-.42.31-.63.47l-.41.31c-.17.13-.36.24-.54.35a5.56,5.56,0,0,0-.76.53l-.07.07-.07.07a6.17,6.17,0,0,0-.91,1c-.17.23-.33.44-.51.64A2.49,2.49,0,0,1,0,7.2H0A2.52,2.52,0,0,0,1.35,6.44Z"/><path d="M.55,5.93A2,2,0,0,0,.71,4.84,3.37,3.37,0,0,1,.9,3.48a3.22,3.22,0,0,1,.87-1l.16-.14A5.4,5.4,0,0,0,3.29.44L3.36.26A2.22,2.22,0,0,1,3.45,0l0,0h0l0,0a2.32,2.32,0,0,0-.09.22L3.27.43A5.37,5.37,0,0,1,1.92,2.32l-.16.14a3.22,3.22,0,0,0-.87,1A3.38,3.38,0,0,0,.7,4.84,2,2,0,0,1,.54,5.92,1.41,1.41,0,0,1,0,6.34H0A1.43,1.43,0,0,0,.55,5.93Z"/><path d="M.19.36A.52.52,0,0,0,.32,0h0A.52.52,0,0,1,.19.35.26.26,0,0,1,0,.44H0A.27.27,0,0,0,.19.36Z"/><path d="M4.21.21A3.48,3.48,0,0,0,3.75,1l-.06.13A7.85,7.85,0,0,1,3,2.42a2,2,0,0,1-.62.47,1.71,1.71,0,0,0-.85.81.81.81,0,0,0,0,.49.26.26,0,0,0,.25.16h0a1,1,0,0,0,.52-.23,3.47,3.47,0,0,0,.51-.59l.26-.34a1.65,1.65,0,0,1,.32-.3,6.45,6.45,0,0,1,1.09-.45A4.5,4.5,0,0,0,6,1.73,1,1,0,0,0,6.3,1,1.22,1.22,0,0,0,6,.12L5.86,0h0L6,.13A1.2,1.2,0,0,1,6.29,1,1,1,0,0,1,6,1.72a4.55,4.55,0,0,1-1.5.73,6.4,6.4,0,0,0-1.09.45,1.61,1.61,0,0,0-.32.3c-.09.11-.18.22-.26.34a3.51,3.51,0,0,1-.5.58.94.94,0,0,1-.51.23.24.24,0,0,1-.24-.16.81.81,0,0,1,0-.48,1.7,1.7,0,0,1,.84-.8A2.06,2.06,0,0,0,3,2.43a8,8,0,0,0,.69-1.28L3.77,1a3.49,3.49,0,0,1,.45-.8A1.2,1.2,0,0,1,4.46,0h0A1.24,1.24,0,0,0,4.21.21Z"/><path d="M9.37,3.55h0a.27.27,0,0,1,0,.09h0a.59.59,0,0,0,.4.14h0a.76.76,0,0,0,.58-.24.33.33,0,0,0,.06-.29c0-.19-.23-.26-.44-.31h0c-.34,0-.7.26-.66.6ZM10,3c.2.05.38.11.42.3a.32.32,0,0,1-.06.28.74.74,0,0,1-.57.24h0a.57.57,0,0,1-.39-.14h0a.32.32,0,0,0-.05-.1C9.35,3.16,9.79,3,10,3Z"/><path d="M12.91,3.77h0a1.77,1.77,0,0,0,.86.22h0c.2,0,.55,0,.65-.31h0a.34.34,0,0,0-.1-.25,1,1,0,0,0-.69-.22c-.37,0-.77.14-.78.46h0A.27.27,0,0,1,12.91,3.77Zm.72-.54a1,1,0,0,1,.68.22.33.33,0,0,1,.1.24c-.09.26-.44.3-.63.3h0a1.77,1.77,0,0,1-.86-.22h0a.31.31,0,0,0,0-.09C12.88,3.37,13.27,3.23,13.63,3.23Z"/><path d="M3.61,10a3.54,3.54,0,0,0-.12,1.14,6.24,6.24,0,0,0,.89,2,1.8,1.8,0,0,0,.31.34,1.14,1.14,0,0,0,.69.23h0a.78.78,0,0,0,.6-.25.91.91,0,0,0,.17-.75A2.94,2.94,0,0,0,6,12.15a2.82,2.82,0,0,1-.15-.55,2.2,2.2,0,0,1,.8-1.93A8,8,0,0,1,7.4,9.1a7.53,7.53,0,0,0,.81-.62,2.35,2.35,0,0,0,.93-1.4h0a1.08,1.08,0,0,0-.48-.82A1.16,1.16,0,0,0,8,6.08a4,4,0,0,0-.7.09,4.62,4.62,0,0,1-.82.1h-.2a3.61,3.61,0,0,1-.48-.1A3.21,3.21,0,0,0,5.13,6H5a1.69,1.69,0,0,0-.76.46,2.32,2.32,0,0,0-.75.94,1.59,1.59,0,0,0,0,.41,3.48,3.48,0,0,0,.1.51,2.89,2.89,0,0,1,.11,1A3.83,3.83,0,0,1,3.61,10Zm0-1.65a3.49,3.49,0,0,1-.1-.51,1.6,1.6,0,0,1,0-.4,2.31,2.31,0,0,1,.74-.93A1.71,1.71,0,0,1,5,6.06h.11a3.13,3.13,0,0,1,.68.12,3.79,3.79,0,0,0,.48.1h.21a4.46,4.46,0,0,0,.82-.1A4.1,4.1,0,0,1,8,6.09a1.16,1.16,0,0,1,.66.18,1.07,1.07,0,0,1,.47.81A2.35,2.35,0,0,1,8.2,8.47a7.68,7.68,0,0,1-.81.62,8.11,8.11,0,0,0-.76.57,2.21,2.21,0,0,0-.8,1.95,2.91,2.91,0,0,0,.16.55,2.77,2.77,0,0,1,.15.55.89.89,0,0,1-.17.74.77.77,0,0,1-.59.24h0a1.13,1.13,0,0,1-.68-.23,1.8,1.8,0,0,1-.31-.34,6.21,6.21,0,0,1-.89-2A3.47,3.47,0,0,1,3.62,10a3.79,3.79,0,0,0,.11-.62A2.89,2.89,0,0,0,3.62,8.36Z"/><path d="M4.42,10c0,.06,0,.12,0,.18a.73.73,0,0,0,.31.6h0c.28,0,.46-.27.64-.53.07-.09.14-.19.21-.28A6.41,6.41,0,0,1,7,8.85a7.28,7.28,0,0,0,.88-.67A.6.6,0,0,0,8,8a.83.83,0,0,1,.14-.15.9.9,0,0,0,.2-.9c-.07-.15-.26-.34-.72-.34h-.2L7,6.69c-.2,0-.42.08-.65.1H6.17a1.68,1.68,0,0,0-1.34.53,2,2,0,0,0-.44,1.2,8.28,8.28,0,0,0,0,1C4.41,9.69,4.42,9.84,4.42,10Zm0-1.44a2,2,0,0,1,.43-1.19c.36-.43.71-.46,1.33-.53h.14c.23,0,.45-.07.65-.1l.5-.08h.19c.46,0,.64.18.71.33a.88.88,0,0,1-.2.89A.89.89,0,0,0,8,8a.55.55,0,0,1-.19.18h0a7.06,7.06,0,0,1-.88.67,6.43,6.43,0,0,0-1.33,1.1,3.36,3.36,0,0,0-.21.28c-.19.26-.36.51-.63.53s-.26-.36-.3-.59c0-.06,0-.12,0-.18s0-.28,0-.44A8.06,8.06,0,0,1,4.41,8.54Z"/><path d="M12.87,8.42a3.39,3.39,0,0,0,.92,2.43,3.38,3.38,0,0,0,2,.87h0a1.41,1.41,0,0,0,1.12-.51,3.27,3.27,0,0,0,.52-1l0-.13.09-.23a5.37,5.37,0,0,0,.35-1.17,1.3,1.3,0,0,0-.51-1.32,3,3,0,0,0-1.9-.52l-.58,0c-.33,0-.71-.06-1-.06a1.32,1.32,0,0,0-.68.12c-.5.33-.44,1.15-.4,1.48Zm.39-1.57a1.31,1.31,0,0,1,.67-.12c.31,0,.69,0,1,.06l.58,0a3,3,0,0,1,1.89.51,1.29,1.29,0,0,1,.51,1.31,5.42,5.42,0,0,1-.35,1.16l-.09.23,0,.13a3.25,3.25,0,0,1-.52,1,1.39,1.39,0,0,1-1.11.5,3.37,3.37,0,0,1-2-.87,3.37,3.37,0,0,1-.91-2.42V8.31C12.82,8,12.76,7.17,13.26,6.84Z"/><path d="M13.56,8.57a2.6,2.6,0,0,0,.81,2,2.41,2.41,0,0,0,1.38.52h0a1.07,1.07,0,0,0,.67-.21,2.57,2.57,0,0,0,.76-1.78,1.74,1.74,0,0,0-.66-1.57A2.82,2.82,0,0,0,15,7.19h-.36a1.12,1.12,0,0,0-1,.38,1.81,1.81,0,0,0-.11.86Zm.12-1a1.11,1.11,0,0,1,1-.38H15a2.82,2.82,0,0,1,1.49.34,1.73,1.73,0,0,1,.65,1.56,2.55,2.55,0,0,1-.76,1.78,1.06,1.06,0,0,1-.66.21h0a2.41,2.41,0,0,1-1.38-.52,2.55,2.55,0,0,1-.8-2c0-.05,0-.1,0-.15A1.83,1.83,0,0,1,13.68,7.57Z"/><path d="M5.59,8.44h0l.05,0,.07.06h0A2.62,2.62,0,0,0,6.82,8a.71.71,0,0,0,.29-.39h0l-.06-.07,0,0H6.83a1.48,1.48,0,0,0-1,.37.72.72,0,0,0-.21.54Zm.22-.54a1.46,1.46,0,0,1,1-.37H7l0,0,.06.06A.7.7,0,0,1,6.81,8a2.61,2.61,0,0,1-1.09.5l-.06-.05-.05,0A.71.71,0,0,1,5.81,7.9Z"/><path d="M14.92,10.21a1.28,1.28,0,0,0,.68.22h0a.86.86,0,0,0,.72-.37A1.67,1.67,0,0,0,16,8a1.33,1.33,0,0,0-.82-.27l-.28,0c-.41.07-.62.39-.62.94A1.84,1.84,0,0,0,14.92,10.21Zm-.06-2.46.28,0A1.33,1.33,0,0,1,16,8a1.57,1.57,0,0,1,.55,1A1.45,1.45,0,0,1,16.31,10a.85.85,0,0,1-.71.36h0a1.27,1.27,0,0,1-.68-.21,1.83,1.83,0,0,1-.67-1.53C14.24,8.14,14.45,7.82,14.86,7.75Z"/><path d="M1.64,13.86a1.91,1.91,0,0,0,.17.27h0c.08.11.23.29.43.26a.59.59,0,0,0,.45-.67c0-.3-.24-.52-.64-.7L2,13a.76.76,0,0,1-.45-.34A7.63,7.63,0,0,1,1.4,11.3a11.16,11.16,0,0,0-.09-1.24A1.45,1.45,0,0,0,.18,8.73L0,8.69H0l.18,0A1.43,1.43,0,0,1,1.3,10.05a11.61,11.61,0,0,1,.09,1.24,7.61,7.61,0,0,0,.12,1.36A.77.77,0,0,0,2,13l.08,0c.39.17.59.39.63.69a.58.58,0,0,1-.44.65c-.19,0-.33-.15-.42-.26h0a2,2,0,0,1-.17-.27c-.17-.31-.34-.62-.84-.54a2,2,0,0,0-.81.38v0a2,2,0,0,1,.81-.39C1.3,13.24,1.48,13.56,1.64,13.86Z"/><path d="M.32,12.12a1.82,1.82,0,0,0,.42-1.29A1.71,1.71,0,0,0,.26,9.64.77.77,0,0,0,0,9.52H0a.79.79,0,0,1,.25.12,1.7,1.7,0,0,1,.48,1.18,1.81,1.81,0,0,1-.42,1.29,1.88,1.88,0,0,1-.32.27v0A1.75,1.75,0,0,0,.32,12.12Z"/><path d="M12.06,12.21a1.33,1.33,0,0,0-.09-.27,5.42,5.42,0,0,0-1.39-1.81,2,2,0,0,0-.79-.48H9.64A1.44,1.44,0,0,0,8.35,10.7a.38.38,0,0,0,0,.07.37.37,0,0,1,0,.11h0a10.2,10.2,0,0,0,.67,1.32,2.61,2.61,0,0,0,.37.51,2.3,2.3,0,0,0,1.51.61h0a1.18,1.18,0,0,0,.73-.22A.89.89,0,0,0,12.06,12.21ZM10.93,13.3h0a2.28,2.28,0,0,1-1.5-.6,2.62,2.62,0,0,1-.37-.5,10.29,10.29,0,0,1-.67-1.31.35.35,0,0,0,0-.12V10.7A1.43,1.43,0,0,1,9.64,9.64h.14a2,2,0,0,1,.79.48A5.42,5.42,0,0,1,12,11.94a1.37,1.37,0,0,1,.09.27.88.88,0,0,1-.39.88A1.17,1.17,0,0,1,10.93,13.3Z"/><path d="M10.83,11.11a1.89,1.89,0,0,0-.88-.49H9.81a.51.51,0,0,0-.39.15.69.69,0,0,0-.16.51,1.94,1.94,0,0,0,.58,1.17,1.42,1.42,0,0,0,.85.3h0a.64.64,0,0,0,.68-.45.85.85,0,0,0,0-.29A1.64,1.64,0,0,0,10.83,11.11Zm.53,1.18a.62.62,0,0,1-.67.44h0a1.41,1.41,0,0,1-.84-.29,1.94,1.94,0,0,1-.57-1.16.68.68,0,0,1,.16-.5.5.5,0,0,1,.38-.14H10A2,2,0,0,1,11.37,12,.81.81,0,0,1,11.36,12.29Z"/><path d="M14,13.34h-.11a.81.81,0,0,0-.23,0,1.59,1.59,0,0,0-1,.83,1.55,1.55,0,0,0,0,.79,1.51,1.51,0,0,1,0,.68,1.55,1.55,0,0,1-.66.7,1.36,1.36,0,0,0-.66.76.8.8,0,0,0,.18.67,1.45,1.45,0,0,0,1.08.45h0a1.15,1.15,0,0,0,.7-.21,1.6,1.6,0,0,0,.35-.42l0,0a2.31,2.31,0,0,0,.17-.71,3.63,3.63,0,0,1,.15-.7c0-.14.1-.25.15-.36a2.33,2.33,0,0,0,.22-1.36A1.72,1.72,0,0,0,14,13.34Zm.14,2.48c0,.11-.1.23-.15.37a3.81,3.81,0,0,0-.15.7,2.34,2.34,0,0,1-.17.71v0a1.59,1.59,0,0,1-.35.41,1.13,1.13,0,0,1-.69.21,1.44,1.44,0,0,1-1.07-.45.79.79,0,0,1-.18-.66c.07-.34.36-.54.66-.75a1.56,1.56,0,0,0,.67-.71,1.5,1.5,0,0,0,0-.69,1.52,1.52,0,0,1,0-.79,1.57,1.57,0,0,1,1-.82.79.79,0,0,1,.22,0H14a1.72,1.72,0,0,1,.37,1.12A2.32,2.32,0,0,1,14.12,15.82Z"/><path d="M2,15.93a.32.32,0,0,0-.21-.08.56.56,0,0,0-.4.22.78.78,0,0,0-.21.57.55.55,0,0,0,.53.43h0a.45.45,0,0,0,.38-.19A.83.83,0,0,0,2,15.93Zm.08.94a.44.44,0,0,1-.37.18h0a.53.53,0,0,1-.52-.41.77.77,0,0,1,.21-.56.55.55,0,0,1,.39-.22.31.31,0,0,1,.2.08A.81.81,0,0,1,2,16.87Z"/><path d="M6.72,17.65a.27.27,0,0,1,0-.06h0a.3.3,0,0,0-.17-.06.36.36,0,0,0-.26.12.32.32,0,0,0-.09.24h0a.24.24,0,0,0,.22.14h0a.37.37,0,0,0,.36-.31h0A.24.24,0,0,0,6.72,17.65ZM6.39,18h0a.23.23,0,0,1-.21-.13.3.3,0,0,1,.08-.23.35.35,0,0,1,.25-.12.28.28,0,0,1,.16.05l0,.06a.25.25,0,0,1,0,.07A.36.36,0,0,1,6.39,18Z"/><path d="M24.35.24a1.24,1.24,0,0,0,1,0A1,1,0,0,0,25.73,0h0a.93.93,0,0,1-.37.27,1.22,1.22,0,0,1-1,0A.92.92,0,0,1,24.07,0h0A.93.93,0,0,0,24.35.24Z"/><path d="M13.16.78l.35.27a2.92,2.92,0,0,0,.82.51,2.06,2.06,0,0,0,.92.24,1.51,1.51,0,0,0,.69-.17A2.42,2.42,0,0,0,17.09,0h0a2.4,2.4,0,0,1-1.14,1.62,1.72,1.72,0,0,1-1.6-.07A2.89,2.89,0,0,1,13.53,1L13.17.77l-.4-.27A8,8,0,0,1,12.08,0h0a7.7,7.7,0,0,0,.7.5Z"/><path d="M17.78,1a.56.56,0,0,0,.58.31,2.79,2.79,0,0,0,.45,0h.09a1.34,1.34,0,0,1,.37.07l.19,0,.15,0a2.69,2.69,0,0,1,.61.17l.23.1a2.43,2.43,0,0,1,1,.66l0,.06a9.41,9.41,0,0,1,.48.82,8.42,8.42,0,0,0,.54.91c.2.28.47.59.73.9l.26.3a2,2,0,0,0,1.53,1h0a2.32,2.32,0,0,0,.6-.09,3.1,3.1,0,0,0,2.1-1.5A5.44,5.44,0,0,0,28,3.79c.05-.27.11-.55.18-.78V3a7.6,7.6,0,0,0-.19.82,5.56,5.56,0,0,1-.24.93,3.09,3.09,0,0,1-2.09,1.49,2.26,2.26,0,0,1-.6.09h0a2,2,0,0,1-1.51-.95L23.28,5c-.26-.3-.53-.61-.73-.89A8.84,8.84,0,0,1,22,3.24c-.15-.27-.3-.55-.48-.82l0-.06a2.44,2.44,0,0,0-1-.66l-.23-.1a2.73,2.73,0,0,0-.62-.17l-.15,0-.19,0a1.36,1.36,0,0,0-.37-.07h-.1a2.73,2.73,0,0,1-.44,0,.55.55,0,0,1-.57-.3,2.21,2.21,0,0,1,0-.88V0h0V.14A2.25,2.25,0,0,0,17.78,1Z"/><path d="M23.18.4A2.26,2.26,0,0,0,25,1.24a2.57,2.57,0,0,0,.55-.06,1.25,1.25,0,0,0,1-1.18h0a2.17,2.17,0,0,1-.14.5,1.1,1.1,0,0,1-.85.67,2.56,2.56,0,0,1-.55.06A2.25,2.25,0,0,1,23.19.39,3.21,3.21,0,0,1,23.08,0h0a3.4,3.4,0,0,0,.12.4Z"/><path d="M19.47.67a6.35,6.35,0,0,1,1,.25c.2.06.42.13.63.18l.4.08.33,0h0q.28,0,.34-.12A3.19,3.19,0,0,0,22.34,0h0a3.22,3.22,0,0,1-.17,1.09c0,.07-.14.11-.33.11l-.33,0-.4-.08C20.89,1,20.68,1,20.47.91a6.39,6.39,0,0,0-1-.25A1,1,0,0,1,18.7,0h0A1,1,0,0,0,19.47.67Z"/><path d="M27.09.34c0,.48,0,.9-.35,1.14a3,3,0,0,1-1.34.38l-.12,0h-.23a4.68,4.68,0,0,1-1.34-.29,5.24,5.24,0,0,0-1.19-.28h0a.42.42,0,0,0-.25.5A3.87,3.87,0,0,0,23.21,4l.35.47a9.33,9.33,0,0,0,.58.74,1.5,1.5,0,0,0,1.16.53h0a2.65,2.65,0,0,0,1.65-.68A3.1,3.1,0,0,0,27.58,3c0-.06,0-.12,0-.18A1.58,1.58,0,0,1,27.75,2a2,2,0,0,1,.43-.39v0a2,2,0,0,0-.44.4,1.6,1.6,0,0,0-.16.84c0,.06,0,.12,0,.18a3.08,3.08,0,0,1-.64,2,2.64,2.64,0,0,1-1.64.68,1.49,1.49,0,0,1-1.15-.52,9.11,9.11,0,0,1-.57-.74L23.22,4a3.86,3.86,0,0,1-.94-2.18.41.41,0,0,1,.24-.48,5.17,5.17,0,0,1,1.19.28,4.7,4.7,0,0,0,1.34.29h.23l.12,0a3,3,0,0,0,1.34-.39c.33-.25.34-.67.36-1.15,0-.1,0-.2,0-.31V0h0V0C27.1.13,27.09.24,27.09.34Z"/><path d="M27.29,6.81h0c-.09.07-.23.18-.21.33h0l.08.07h0a2.55,2.55,0,0,0,.5.05h0a2.54,2.54,0,0,0,.51-.05h0a2.5,2.5,0,0,1-1,0l-.07-.07c0-.14.11-.24.21-.32h0a2.88,2.88,0,0,1,.59-.32l.29-.13h0l-.29.14A2.81,2.81,0,0,0,27.29,6.81Z"/><path d="M27.86.11a.36.36,0,0,0,.31.34h0a.34.34,0,0,1-.3-.33.57.57,0,0,1,0-.11h0A.6.6,0,0,0,27.86.11Z"/><path d="M26,2.53l-.27,0c-.2,0-.41.1-.64.17a7.07,7.07,0,0,1-.77.2c-.23,0-.33.14-.31.32h0a5,5,0,0,1,.21.56,2,2,0,0,0,.65,1.13,1.09,1.09,0,0,0,.6.17h0a1.45,1.45,0,0,0,1-.4,1.6,1.6,0,0,0,.42-.91,1.37,1.37,0,0,0-.21-1A.85.85,0,0,0,26,2.53Zm.46,2.16a1.43,1.43,0,0,1-1,.4,1.07,1.07,0,0,1-.59-.17,2,2,0,0,1-.65-1.12,4.77,4.77,0,0,0-.21-.56c0-.16.07-.26.29-.3a7.5,7.5,0,0,0,.77-.2c.22-.07.44-.13.64-.17l.27,0a.83.83,0,0,1,.66.26A1.59,1.59,0,0,1,26.5,4.68Z"/><path d="M11.08,8.34c.07.13.13.26.19.38l.15.34a8.9,8.9,0,0,0,1.07,2,8,8,0,0,0,.59.63,6.7,6.7,0,0,1,.53.56,2.79,2.79,0,0,1,.19.28,1.54,1.54,0,0,0,.44.51h.06a17.16,17.16,0,0,0,2.11-.21,4.2,4.2,0,0,0,1-.29,1.37,1.37,0,0,0,.63-1l0-.12A2.27,2.27,0,0,1,19.18,10h0l0,0,.4-.21.7-.37.3-.16L21.08,9a2,2,0,0,0,.3-.2l.07-.05a1.3,1.3,0,0,1,.3-.17,2.08,2.08,0,0,1,.66-.1A2.42,2.42,0,0,0,23,8.38a.63.63,0,0,0,.41-.25c.33-.49.16-.85-.11-1.32a3.33,3.33,0,0,0-1-1.12L22,5.57a1.67,1.67,0,0,1-.25-.14l-.26-.2-.21-.16a4.21,4.21,0,0,0-1-.59,1.25,1.25,0,0,0-.39-.05,1.74,1.74,0,0,0-.32,0,1.08,1.08,0,0,0-.33.13l-.14.07-.16.06-.2.08c-.16.09-.32.19-.46.29s-.29.19-.45.28a5.61,5.61,0,0,1-2,.72,3.78,3.78,0,0,1-.54,0,3.62,3.62,0,0,1-.67-.06c-.17,0-.34-.08-.51-.13a3.46,3.46,0,0,0-.91-.17,1.29,1.29,0,0,0-.46.08,2.87,2.87,0,0,0-.81.56c-.14.12-.28.24-.44.36l-.13.09c-.11.08-.25.17-.37.27a.51.51,0,0,0-.21.6A3.71,3.71,0,0,0,11.08,8.34ZM11,7.15c.12-.1.25-.2.37-.27l.13-.09c.16-.12.3-.24.44-.36a2.86,2.86,0,0,1,.81-.55,1.31,1.31,0,0,1,.45-.08,3.4,3.4,0,0,1,.9.17c.17,0,.35.1.52.13a3.72,3.72,0,0,0,.67.06,3.66,3.66,0,0,0,.54,0,5.64,5.64,0,0,0,2-.73l.45-.28c.15-.1.3-.2.46-.29l.2-.08.16-.06.14-.07a1.09,1.09,0,0,1,.32-.13l.32,0a1.26,1.26,0,0,1,.39.06,4.17,4.17,0,0,1,1,.59l.21.16.26.2a1.81,1.81,0,0,0,.25.14l.22.12a3.32,3.32,0,0,1,1,1.12c.27.46.44.82.11,1.3a.62.62,0,0,1-.4.24,2.46,2.46,0,0,1-.58.07,2,2,0,0,0-.67.1,1.33,1.33,0,0,0-.3.17l-.07.05a2,2,0,0,1-.3.2l-.47.25-.3.16-.7.37-.4.21h0l0,0a2.29,2.29,0,0,0-1.06,1.47l0,.12a1.36,1.36,0,0,1-.62,1,4.09,4.09,0,0,1-1,.29,17.13,17.13,0,0,1-2.11.21h-.05a1.52,1.52,0,0,1-.44-.5,3.09,3.09,0,0,0-.19-.28,7.08,7.08,0,0,0-.53-.56,7.76,7.76,0,0,1-.59-.63,8.89,8.89,0,0,1-1.07-2l-.15-.34c-.06-.13-.13-.26-.19-.39a3.85,3.85,0,0,1-.28-.6A.49.49,0,0,1,11,7.15Z"/><path d="M12.24,9.23l0,.1a3.5,3.5,0,0,0,1.45,2.15h0a4.41,4.41,0,0,0,1.21.71,2.4,2.4,0,0,0,.72.1h0a2.71,2.71,0,0,0,1-.17c.66-.27.91-.85,1.19-1.53a4.51,4.51,0,0,1,2-2.45,1.63,1.63,0,0,1,.53-.11l.21,0c.28,0,.58-.1.95-.17l.15,0a1,1,0,0,0,.73-.5.55.55,0,0,0,0-.55c-.32-.48-1.42-.64-1.87-.64h0a5.87,5.87,0,0,0-.6,0l-.34,0a1.09,1.09,0,0,0-.53.19,1.2,1.2,0,0,1-.66.18,3.82,3.82,0,0,1-.59-.06l-.19,0a6.16,6.16,0,0,0-.9-.06H15.36a5.7,5.7,0,0,1-1-.07l-.27-.06a2.93,2.93,0,0,0-.68-.11,1.21,1.21,0,0,0-.36,0A1.82,1.82,0,0,0,12,7.61a1.87,1.87,0,0,0,0,.63C12.06,8.59,12.15,8.9,12.24,9.23ZM12,7.61a1.81,1.81,0,0,1,1.07-1.34,1.24,1.24,0,0,1,.35,0,2.9,2.9,0,0,1,.67.11l.27.06a5.63,5.63,0,0,0,1,.07h1.29a6.29,6.29,0,0,1,.9.06l.19,0a3.84,3.84,0,0,0,.59.06A1.22,1.22,0,0,0,19,6.4a1.08,1.08,0,0,1,.53-.18l.34,0a5.85,5.85,0,0,1,.6,0h0c.45,0,1.54.16,1.85.64a.54.54,0,0,1,0,.54,1,1,0,0,1-.72.49l-.15,0c-.36.08-.67.13-.95.17l-.21,0a1.65,1.65,0,0,0-.53.11,4.52,4.52,0,0,0-2,2.46c-.28.67-.52,1.25-1.18,1.52a2.68,2.68,0,0,1-1,.17h0a2.44,2.44,0,0,1-.72-.1,4.39,4.39,0,0,1-1.2-.71h0a3.49,3.49,0,0,1-1.44-2.14l0-.1c-.09-.33-.17-.64-.23-1A1.82,1.82,0,0,1,12,7.61Z"/><path d="M27,9h0l-.09.14a1,1,0,0,0-.17.48,3.89,3.89,0,0,0,0,.58,3.36,3.36,0,0,1,0,.69,2.75,2.75,0,0,1-1.52,2l-.23.08h-.15c-.43,0-.53-.42-.62-.83,0-.09,0-.18-.07-.27a1.37,1.37,0,0,0-.43-.72,1.85,1.85,0,0,0-.86-.34,2.37,2.37,0,0,0-1.34.13l0,0a.79.79,0,0,0-.47.3,2,2,0,0,0-.32,1.3c.08.39.36.47.66.55l.17,0,.23.1a11.89,11.89,0,0,0,1.56.72,2.12,2.12,0,0,1,1,1.08,2.15,2.15,0,0,0,1,1.05.65.65,0,0,0,.25,0h0a1.1,1.1,0,0,0,.36-.07,2.26,2.26,0,0,0,.9-.81,7.08,7.08,0,0,1,1.36-1.5l0,0v0l-.05,0a7.08,7.08,0,0,0-1.37,1.5,2.25,2.25,0,0,1-.89.81,1.1,1.1,0,0,1-.35.07h0a.65.65,0,0,1-.25,0,2.14,2.14,0,0,1-1-1,2.13,2.13,0,0,0-1-1.08,11.85,11.85,0,0,1-1.56-.72l-.23-.1-.17,0c-.29-.08-.57-.16-.65-.54A2,2,0,0,1,21,11.24a.77.77,0,0,1,.46-.29l0,0a2.53,2.53,0,0,1,.88-.17,2.5,2.5,0,0,1,.45,0,1.35,1.35,0,0,1,1.28,1.05c0,.09,0,.18.07.27.1.41.2.84.64.84h.15l.24-.08a2.49,2.49,0,0,0,1-.8,2.72,2.72,0,0,0,.53-1.17,3.53,3.53,0,0,0,0-.69,3.75,3.75,0,0,1,0-.58.93.93,0,0,1,.17-.48L27,9a1.4,1.4,0,0,1,.91-.32l.28,0h0l-.28,0A1.41,1.41,0,0,0,27,9Z"/><path d="M27.45,10a2.37,2.37,0,0,0-.09.63c0,.08,0,.17,0,.26,0,.36-.1.72-.17,1.08a7.54,7.54,0,0,0-.14.94h0a.24.24,0,0,0,.14.06h0l.41-.21a4.55,4.55,0,0,0,.57-.31v0a4.52,4.52,0,0,1-.58.32l-.41.21h0a.23.23,0,0,1-.13-.05,7.49,7.49,0,0,1,.14-.94c.07-.35.14-.72.17-1.08,0-.09,0-.18,0-.26a2.34,2.34,0,0,1,.09-.63A.61.61,0,0,1,28,9.51l.14,0h0L28,9.5A.63.63,0,0,0,27.45,10Z"/><path d="M22.4,11.72c-.25,0-.5.12-.5.39h0a.93.93,0,0,0,.76.59h0a.4.4,0,0,0,.21-.06.38.38,0,0,0,.17-.25.57.57,0,0,0-.11-.43A.68.68,0,0,0,22.4,11.72Zm.64.67a.37.37,0,0,1-.37.3.91.91,0,0,1-.75-.58c0-.26.25-.38.48-.38a.66.66,0,0,1,.53.24A.57.57,0,0,1,23,12.38Z"/><path d="M26.69,13.34h-.08a.76.76,0,0,0-.34.14l-.13.07-.08,0c-.38.18-.89.44-.86,1a.48.48,0,0,0,.44.38h.07a1.9,1.9,0,0,0,.85-1.07v0a.89.89,0,0,0,.12-.54Zm-.13.53v0A1.89,1.89,0,0,1,25.71,15h-.06a.47.47,0,0,1-.43-.37c0-.59.48-.84.85-1l.08,0,.13-.07a.74.74,0,0,1,.34-.13h.07A.9.9,0,0,1,26.56,13.87Z"/><path d="M22.06,18a.56.56,0,0,0-.37-.17c-.29,0-.48.33-.52.65a2.42,2.42,0,0,0,0,.73.43.43,0,0,0,.3.38l.15,0,.25,0h0a.49.49,0,0,0,.45-.21,1.37,1.37,0,0,0,.06-.73A1.2,1.2,0,0,0,22.06,18Zm.27,1.43a.48.48,0,0,1-.44.21l-.25,0-.15,0a.41.41,0,0,1-.29-.37,2.36,2.36,0,0,1,0-.72c0-.32.22-.64.5-.64A.54.54,0,0,1,22,18a1.18,1.18,0,0,1,.34.7A1.38,1.38,0,0,1,22.33,19.39Z"/><path d="M1.38,22.31l.33-.07.4-.08.43,0a2.32,2.32,0,0,0,.94-.19.86.86,0,0,0,.27-1,2.82,2.82,0,0,0-.81-1.39,4.85,4.85,0,0,1-.38-.36,2.62,2.62,0,0,0-.83-.63,6.56,6.56,0,0,0-.82-.25L.4,18.11.15,18,0,18H0L.14,18l.25.09.51.14a7,7,0,0,1,.82.25,2.63,2.63,0,0,1,.82.63,5.07,5.07,0,0,0,.38.36,2.8,2.8,0,0,1,.81,1.38.84.84,0,0,1-.26,1,2.34,2.34,0,0,1-.93.19l-.43,0-.4.08-.33.07-.69.1-.69.1H0l.69-.1Z"/><path d="M1.08,21.52a6.88,6.88,0,0,0,.9-.3,1.23,1.23,0,0,0,.71-.57.9.9,0,0,0-.44-1.11L2,19.39a2.37,2.37,0,0,0-1-.5,7.26,7.26,0,0,0-1-.09H0a6.85,6.85,0,0,1,1,.09,2.37,2.37,0,0,1,1,.5l.22.16a.89.89,0,0,1,.43,1.09,1.21,1.21,0,0,1-.7.56,6.87,6.87,0,0,1-.89.3l-.47.14a5,5,0,0,1-.61.14H0a5,5,0,0,0,.61-.14Z"/><path d="M1,23.08a6.59,6.59,0,0,0,.91,0,6.29,6.29,0,0,0,.78-.14l.18,0,.14,0a3.75,3.75,0,0,0,1.35-.47A1.16,1.16,0,0,0,4.67,21a4,4,0,0,0-.83-1.06A4.66,4.66,0,0,1,3.12,19c-.09-.12-.16-.23-.23-.34A1.35,1.35,0,0,0,2,18c-.92-.21-1.71-.4-1.85-1.31a1.79,1.79,0,0,1,.09-.82,1.74,1.74,0,0,0,.09-.58h0l-.07-.07-.1-.09h0L0,15.1H0l.16,0,.09.09.07.07a1.7,1.7,0,0,1-.09.58,1.82,1.82,0,0,0-.09.83c.15.92.94,1.11,1.86,1.32a1.33,1.33,0,0,1,.87.73c.07.11.14.22.23.34a4.74,4.74,0,0,0,.72.86A4,4,0,0,1,4.66,21a1.15,1.15,0,0,1-.31,1.41A3.75,3.75,0,0,1,3,22.84l-.14,0-.18,0a6.64,6.64,0,0,1-.78.14,6.56,6.56,0,0,1-.91,0,5.41,5.41,0,0,0-1,0H0A5.48,5.48,0,0,1,1,23.08Z"/><path d="M10.11,20.12l.12.06a1.87,1.87,0,0,1,.37.37,2.19,2.19,0,0,1,.42.88c.11.48.42.67.9.84a2.76,2.76,0,0,0,.89.15,2.56,2.56,0,0,0,.45,0,1,1,0,0,0,.92-.87c0-.1,0-.2,0-.29a1.55,1.55,0,0,0-.08-1.16,1,1,0,0,0-.89-.33h-.39l-.3,0c-.28,0-.56-.11-.83-.18a5.5,5.5,0,0,0-1.28-.21h-.26a.36.36,0,0,0-.26.25.44.44,0,0,0,0,.41A.52.52,0,0,0,10.11,20.12Zm-.17-.52a.34.34,0,0,1,.25-.24h.26a5.41,5.41,0,0,1,1.28.21c.27.07.55.13.83.18l.3,0h.39a1,1,0,0,1,.88.33,1.54,1.54,0,0,1,.08,1.15c0,.1,0,.2,0,.29a1,1,0,0,1-.91.86,2.44,2.44,0,0,1-.45,0,2.77,2.77,0,0,1-.89-.15c-.48-.17-.78-.36-.89-.84a2.21,2.21,0,0,0-.42-.89,1.88,1.88,0,0,0-.37-.37l-.12-.07A.5.5,0,0,1,9.95,20,.42.42,0,0,1,9.94,19.6Z"/><path d="M12.52,21.88a1.49,1.49,0,0,0,.39-.05l.07,0a.32.32,0,0,0,.2-.29.4.4,0,0,0-.11-.28.37.37,0,0,0-.38-.1,1.06,1.06,0,0,0-.54.41.22.22,0,0,0,0,.19C12.18,21.86,12.37,21.88,12.52,21.88Zm-.36-.32a1,1,0,0,1,.54-.4l.11,0a.36.36,0,0,1,.26.11.37.37,0,0,1,.11.27.31.31,0,0,1-.2.27l-.06,0a1.47,1.47,0,0,1-.39.05c-.21,0-.34,0-.37-.13A.21.21,0,0,1,12.16,21.56Z"/><path d="M16.56,26.83a.75.75,0,0,1,0-.09.75.75,0,0,0,0-.1,4.28,4.28,0,0,0-.2-.75,5.7,5.7,0,0,1-.24-.85c0-.12,0-.24,0-.37,0-.4-.08-.81-.36-1a1,1,0,0,0-.58-.12l-.47,0h-.19a5.24,5.24,0,0,0-2.09.48,2,2,0,0,0-.6,1.76A2.41,2.41,0,0,0,13,27.54h0a2.42,2.42,0,0,1-1.23-1.71,2,2,0,0,1,.6-1.75,5.22,5.22,0,0,1,2.09-.48h.19l.47,0a1,1,0,0,1,.57.12c.27.18.31.59.35,1,0,.12,0,.25,0,.37a5.74,5.74,0,0,0,.24.85,4,4,0,0,1,.2.75.71.71,0,0,1,0,.1.61.61,0,0,0,0,.1,1.84,1.84,0,0,1-.07.71h0A1.85,1.85,0,0,0,16.56,26.83Z"/><path d="M1.86,26.92c0-.19,0-.37,0-.55a3.17,3.17,0,0,0,0-.75c-.12-.52-.77-.89-1.34-1.06A1.28,1.28,0,0,0,0,24.5H0a1.31,1.31,0,0,1,.49.06c.57.17,1.22.54,1.33,1.05a3.14,3.14,0,0,1,0,.75c0,.18,0,.37,0,.55a4,4,0,0,1,0,.62h0A4,4,0,0,0,1.86,26.92Z"/><path d="M15.88,26.71c0-.13-.07-.28-.12-.44a5.64,5.64,0,0,1-.19-.77l0-.22a1.47,1.47,0,0,0-.42-1.06,1.8,1.8,0,0,0-1-.26,2.33,2.33,0,0,0-1.35.37,1.57,1.57,0,0,0-.45,1.53c.11.52.48.79,1,1.13a7.3,7.3,0,0,1,.68.53l0,0h0l0,0a7.61,7.61,0,0,0-.68-.54c-.47-.34-.85-.61-1-1.12a1.56,1.56,0,0,1,.44-1.52A2.32,2.32,0,0,1,14.08,24a1.79,1.79,0,0,1,1,.26,1.45,1.45,0,0,1,.41,1.05l0,.22a5.56,5.56,0,0,0,.19.77c0,.16.09.31.12.44a1.75,1.75,0,0,1-.05.83h0A1.76,1.76,0,0,0,15.88,26.71Z"/><path d="M6.39,25.93a2.41,2.41,0,0,1-.07-.8,1.21,1.21,0,0,1,0-.16c.05-.2.12-.45-.14-.64h0c-.47-.06-.76.33-1,.67L5,25.25a3.61,3.61,0,0,1-.88.6A2.64,2.64,0,0,0,2.84,27a5.51,5.51,0,0,0-.19.54h0c.06-.18.12-.37.19-.53a2.63,2.63,0,0,1,1.29-1.15,3.57,3.57,0,0,0,.88-.6L5.22,25c.25-.34.53-.72,1-.67.25.18.19.41.13.62a1.4,1.4,0,0,0,0,.17,2.46,2.46,0,0,0,.07.81,9.18,9.18,0,0,0,.33.91c.09.23.19.46.27.7H7c-.08-.24-.18-.47-.27-.7A8.78,8.78,0,0,1,6.39,25.93Z"/><path d="M13.87,24.35a1.32,1.32,0,0,0-.77.23,1,1,0,0,0-.37,1,1.57,1.57,0,0,0,1.54,1.07h0l.24,0h0a1.47,1.47,0,0,0,.25-.26h0a1.83,1.83,0,0,0,0-1.61A1.06,1.06,0,0,0,13.87,24.35Zm.88,2a1.56,1.56,0,0,1-.24.26l-.23,0h0a1.56,1.56,0,0,1-1.53-1.06,1,1,0,0,1,.36-.94,1.31,1.31,0,0,1,.77-.23,1.05,1.05,0,0,1,.85.35A1.82,1.82,0,0,1,14.75,26.32Z"/><path d="M10.66,26.3a3.11,3.11,0,0,0-.51-1.35.61.61,0,0,0-.6-.24,3.8,3.8,0,0,0-1.45.79,1.59,1.59,0,0,0-.42,1.41,5.17,5.17,0,0,0,.15.63h0a4.89,4.89,0,0,1-.15-.63,1.58,1.58,0,0,1,.42-1.4,3.78,3.78,0,0,1,1.44-.78h.11a.58.58,0,0,1,.48.25,3.09,3.09,0,0,1,.51,1.35,3.27,3.27,0,0,0,.42,1.22v0h0l0,0A3.28,3.28,0,0,1,10.66,26.3Z"/><path d="M13.93,25.25h0a.25.25,0,0,0-.21-.13l-.08,0h0a.23.23,0,0,0-.09.15.13.13,0,0,0,0,.11l.05,0h.08a.25.25,0,0,0,.21-.13h0s0,0,0-.07Zm0,.07a.23.23,0,0,1-.2.12h-.07l0,0a.12.12,0,0,1,0-.1.22.22,0,0,1,.08-.14h.07a.24.24,0,0,1,.2.12A.47.47,0,0,1,13.92,25.31Z"/><path d="M.65,25.83A.92.92,0,0,0,0,25.49H0a.91.91,0,0,1,.64.34,3.06,3.06,0,0,1,.5,1.46q0,.13,0,.24h0c0-.07,0-.15,0-.24A3.07,3.07,0,0,0,.65,25.83Z"/><path d="M9.05,26H9a.66.66,0,0,0-.46.24,1.18,1.18,0,0,0-.21.87,3.29,3.29,0,0,0,.07.42h0a3.47,3.47,0,0,1-.07-.42,1.17,1.17,0,0,1,.21-.87A.65.65,0,0,1,9,26h.06c.53,0,.73.63.9,1.19,0,.12.07.23.11.33h0c0-.1-.07-.22-.11-.34C9.79,26.64,9.59,26,9.05,26Z"/><path d="M5.45,26.53l-.27,0a2,2,0,0,0-1,.28,1.93,1.93,0,0,0-.71.75h0a1.92,1.92,0,0,1,1.71-1l.27,0a1.55,1.55,0,0,1,1,.88l.06.12h0l-.06-.12A1.55,1.55,0,0,0,5.45,26.53Z"/><path d="M0,27.09H0a.26.26,0,0,1,.24.19.66.66,0,0,1,0,.25h0a.67.67,0,0,0,0-.26A.28.28,0,0,0,0,27.09Z"/><path d="M4.43,27.54h0a1.27,1.27,0,0,1,.71-.22,1.1,1.1,0,0,1,.67.22h0a1.11,1.11,0,0,0-.69-.24A1.28,1.28,0,0,0,4.43,27.54Z"/><path d="M23.36,26.27a9.63,9.63,0,0,1-.44-.88c-.07-.17-.13-.35-.2-.54-.29-.83-.61-1.76-1.62-1.76h0a2.4,2.4,0,0,0-.94.24l-.17.08c-.17.08-.34.16-.5.24a5.84,5.84,0,0,1-1.49.5h0l-.14,0c-.34.07-.76.16-.9.56A2.08,2.08,0,0,0,17,25.81c0,.14.06.27.09.39a3.47,3.47,0,0,1,0,1.2l0,.14h0l0-.14a3.5,3.5,0,0,0,0-1.2c0-.12-.05-.25-.09-.39a2.06,2.06,0,0,1-.08-1.06c.13-.39.55-.48.89-.55l.14,0h0a5.78,5.78,0,0,0,1.49-.5l.5-.25.17-.08a2.39,2.39,0,0,1,.93-.24h0c1,0,1.32.93,1.61,1.75.07.19.13.38.2.54s.29.6.44.88.26.47.36.7a2.34,2.34,0,0,0,.34.56h0a2.26,2.26,0,0,1-.34-.56C23.62,26.74,23.49,26.51,23.36,26.27Z"/><path d="M27.81,23.8a2.48,2.48,0,0,0-1.6,1.71,7.45,7.45,0,0,0-.15.79,5.82,5.82,0,0,1-.19,1,.92.92,0,0,1-.16.28h0a.92.92,0,0,0,.16-.28,5.67,5.67,0,0,0,.19-1,7.62,7.62,0,0,1,.15-.79,2.47,2.47,0,0,1,1.59-1.7l.29-.08h0Z"/><path d="M27,17.84a3.37,3.37,0,0,0-.77.31,3.27,3.27,0,0,1-.77.31c-.68.15-.94-.45-1.16-1l-.09-.22a4.59,4.59,0,0,0-.43-.75,4,4,0,0,0-1.09-1.06,2.5,2.5,0,0,0-1-.41,2.17,2.17,0,0,0-1.24.26l-.27.12a1.73,1.73,0,0,0-.77.5,3.67,3.67,0,0,0-.38.67l0,.05a13.06,13.06,0,0,0-.52,1.3l-.11.31c-.1.28-.2.57-.32.84a2.81,2.81,0,0,1-.36.56c-.08.1-.15.2-.22.3a3.65,3.65,0,0,1-.71.72l-.27.23-.17.15a1.82,1.82,0,0,0-.66.84l0,.13a1.28,1.28,0,0,1-.54.94,3.15,3.15,0,0,1-1.17.36l-.54.08a7.43,7.43,0,0,0-.92.16,1.54,1.54,0,0,0-1.16,1.32,4,4,0,0,0,.14,1.88,2,2,0,0,0,.6.77h0a2,2,0,0,1-.61-.78,4,4,0,0,1-.14-1.87,1.52,1.52,0,0,1,1.15-1.31,7.24,7.24,0,0,1,.92-.16l.54-.08A3.17,3.17,0,0,0,15.11,23a1.28,1.28,0,0,0,.54-.95l0-.13a1.81,1.81,0,0,1,.66-.83l.17-.15.27-.23a3.62,3.62,0,0,0,.71-.72l.22-.3a2.94,2.94,0,0,0,.37-.57c.12-.27.22-.56.32-.84L18.5,18a13.26,13.26,0,0,1,.52-1.3l0-.05a3.71,3.71,0,0,1,.38-.67,1.72,1.72,0,0,1,.77-.49l.27-.12a2.15,2.15,0,0,1,1.24-.26,2.49,2.49,0,0,1,1,.41,3.93,3.93,0,0,1,1.09,1.06,4.57,4.57,0,0,1,.43.75l.09.22a2.75,2.75,0,0,0,.41.74.75.75,0,0,0,.77.24,3.32,3.32,0,0,0,.77-.31,3.39,3.39,0,0,1,.77-.31,2.08,2.08,0,0,1,1.17.13h0A2.1,2.1,0,0,0,27,17.84Z"/><path d="M26.32,22.78a2.5,2.5,0,0,1-1,.7c-.53.16-.94-.24-1.33-.62l-.07-.07a3.71,3.71,0,0,0-.66-.48,5.17,5.17,0,0,1-.49-.33l-.36-.26-.24-.17a1.31,1.31,0,0,1-.31-.39,2.22,2.22,0,0,0-.15-.23,2.49,2.49,0,0,0-.57-.48c-.38-.26-.73-.51-.76-1a2.71,2.71,0,0,1,.19-1,3,3,0,0,1,.66-1,.77.77,0,0,1,.6-.28c.36,0,.66.41.89.73a1.75,1.75,0,0,1,.24.57,3.23,3.23,0,0,0,.12.35c.05.12.11.24.17.36a3.39,3.39,0,0,1,.25.58,1.68,1.68,0,0,1,0,1.12,1.11,1.11,0,0,0,.08,1,1.73,1.73,0,0,0,.79.48l.18.07.08,0a1.31,1.31,0,0,0,.26.1c.45.09.76-.12.94-.66a1.23,1.23,0,0,0-.38-1.44,2.83,2.83,0,0,0-.44-.28L24.79,20l-.05,0a2.18,2.18,0,0,1-.57-.43,3.6,3.6,0,0,1-.49-.81c-.06-.15-.11-.3-.16-.46l-.12-.35a3,3,0,0,0-.37-.67,2.47,2.47,0,0,0-1-.81c-.6-.22-1.4.37-1.8.82a3,3,0,0,0-.48.84l-.09.22a5.15,5.15,0,0,1-.58,1.16,3.6,3.6,0,0,0-.22.36l-.15.26a1.36,1.36,0,0,1-.56.45l-.29.14a2.9,2.9,0,0,0-.8.48.47.47,0,0,0-.18.44.87.87,0,0,0,.58.54,3.53,3.53,0,0,0,1.63.06h.19A1.58,1.58,0,0,0,20,22l.1-.06a3.45,3.45,0,0,1,1-.44,1.19,1.19,0,0,1,.81.09.56.56,0,0,1,.2.28,1,1,0,0,0,.11.2,3.44,3.44,0,0,0,.66.61,3.5,3.5,0,0,1,.66.59,3.37,3.37,0,0,1,.29.47,3.1,3.1,0,0,0,.28.47.73.73,0,0,0,.83.26A3.33,3.33,0,0,0,25.8,24l.13-.1.45-.36a5,5,0,0,1,1.21-.81,3.13,3.13,0,0,1,.57-.16h0a3.07,3.07,0,0,0-.58.16,5,5,0,0,0-1.22.81l-.45.36-.13.1a3.3,3.3,0,0,1-.88.55.72.72,0,0,1-.81-.25,3.07,3.07,0,0,1-.28-.46,3.3,3.3,0,0,0-.29-.48,3.56,3.56,0,0,0-.66-.59,3.41,3.41,0,0,1-.66-.6,1,1,0,0,1-.1-.19.59.59,0,0,0-.21-.28,1.21,1.21,0,0,0-.82-.09,3.46,3.46,0,0,0-1,.44L20,22a1.59,1.59,0,0,1-.66.17h-.19a3.55,3.55,0,0,1-1.62-.06.85.85,0,0,1-.57-.53.46.46,0,0,1,.17-.43,2.93,2.93,0,0,1,.79-.48l.29-.14a1.37,1.37,0,0,0,.56-.46l.15-.26a3.51,3.51,0,0,1,.22-.36,5.17,5.17,0,0,0,.58-1.16l.09-.22a3,3,0,0,1,.47-.83c.39-.45,1.19-1,1.78-.81a2.44,2.44,0,0,1,1,.81,2.85,2.85,0,0,1,.37.66c0,.12.08.24.12.35s.1.31.16.46a3.62,3.62,0,0,0,.49.81,2.22,2.22,0,0,0,.57.43l.05,0,.21.12a2.72,2.72,0,0,1,.44.28,1.22,1.22,0,0,1,.38,1.42c-.18.53-.49.74-.93.65a1.27,1.27,0,0,1-.26-.1l-.08,0-.18-.07a1.72,1.72,0,0,1-.79-.47,1.1,1.1,0,0,1-.08-1,1.71,1.71,0,0,0,0-1.13,3.52,3.52,0,0,0-.25-.58c-.06-.12-.12-.24-.17-.36a3.16,3.16,0,0,1-.12-.35,1.74,1.74,0,0,0-.24-.57c-.23-.33-.54-.71-.9-.74a.78.78,0,0,0-.61.28,3.05,3.05,0,0,0-.67,1,2.72,2.72,0,0,0-.19,1c0,.52.4.77.76,1a2.49,2.49,0,0,1,.57.48,2.07,2.07,0,0,1,.15.23,1.35,1.35,0,0,0,.31.39l.24.17.35.26a4.83,4.83,0,0,0,.49.33,3.67,3.67,0,0,1,.66.48l.07.07c.39.38.8.78,1.34.62a2.51,2.51,0,0,0,1-.7,3.33,3.33,0,0,1,1-.76,4.49,4.49,0,0,1,.83-.23h0a4.43,4.43,0,0,0-.84.23A3.36,3.36,0,0,0,26.32,22.78Z"/><path d="M26.8,18.88a3,3,0,0,0-.66.26,1.62,1.62,0,0,1-1.14.27c-.65-.2-.9-.9-1.12-1.5l-.13-.36a3.26,3.26,0,0,0-.38-.69,3.11,3.11,0,0,0-.82-.73l-.14-.1a1.34,1.34,0,0,0-1-.32,1.2,1.2,0,0,0-.36.14l-.21.1-.16.06a2.52,2.52,0,0,0-1.1.62,2.19,2.19,0,0,0-.22.33l-.1.17a3.93,3.93,0,0,0-.36.71,5.51,5.51,0,0,0-.23.86,5.06,5.06,0,0,1-.26.92,1.86,1.86,0,0,1-.76.7l-.23.15a4.34,4.34,0,0,0-.55.48c-.11.11-.23.22-.35.32a1.11,1.11,0,0,0-.33,1.06c.14.73.42.85,1,1a5,5,0,0,0,1.67-.05A3,3,0,0,0,20,22.69l.36-.24a1.29,1.29,0,0,1,1.54.16l.18.15a2.63,2.63,0,0,1,.89,1,4.27,4.27,0,0,1,.19.59,4.37,4.37,0,0,0,.18.58,2.38,2.38,0,0,0,.6.82,1,1,0,0,0,.88.3c.31-.09.49-.44.69-.82a3.79,3.79,0,0,1,.42-.68,4.72,4.72,0,0,1,.72-.66l0,0a3.34,3.34,0,0,1,1.38-.76l.1,0h0l-.11,0a3.34,3.34,0,0,0-1.39.76l0,0a4.83,4.83,0,0,0-.72.66,3.91,3.91,0,0,0-.42.69c-.19.37-.37.72-.68.81a1,1,0,0,1-.87-.3,2.38,2.38,0,0,1-.6-.81,4.34,4.34,0,0,1-.18-.58,4.34,4.34,0,0,0-.19-.59,2.68,2.68,0,0,0-.9-1l-.18-.15a1.31,1.31,0,0,0-1.55-.17l-.36.24a3,3,0,0,1-1.08.54,4.92,4.92,0,0,1-1.66.05c-.61-.1-.89-.22-1-.94a1.1,1.1,0,0,1,.33-1l.35-.33a4.36,4.36,0,0,1,.55-.48l.23-.15a1.87,1.87,0,0,0,.77-.71,5.06,5.06,0,0,0,.26-.92,5.42,5.42,0,0,1,.23-.86,3.94,3.94,0,0,1,.36-.71l.1-.17a2.16,2.16,0,0,1,.22-.33A2.53,2.53,0,0,1,20.74,16L20.9,16l.21-.1a1.2,1.2,0,0,1,.35-.14,1.34,1.34,0,0,1,1,.32l.14.09a3.11,3.11,0,0,1,.81.73,3.28,3.28,0,0,1,.37.69l.13.35c.22.61.47,1.31,1.13,1.51a1.63,1.63,0,0,0,1.14-.27,3,3,0,0,1,.65-.26,7,7,0,0,1,1.37-.08h0A7.16,7.16,0,0,0,26.8,18.88Z"/><path d="M26.53,8.44a1.48,1.48,0,0,0-.63,1,2.21,2.21,0,0,0,0,.54,2.15,2.15,0,0,1,0,.58.7.7,0,0,1-.29.49.37.37,0,0,1-.33,0,3,3,0,0,0-1.17-.94L23.68,10l-.25-.08a4.33,4.33,0,0,0-1.91-.27,1.44,1.44,0,0,0-1,.39,3.29,3.29,0,0,0-.45.62,5,5,0,0,1-.31.45l-.19.21a2.25,2.25,0,0,0-.27.33,1.38,1.38,0,0,0-.1.92,2.36,2.36,0,0,0,.53.95l.17.23a1.7,1.7,0,0,0,.53.56,1.46,1.46,0,0,0,.79.11,1.54,1.54,0,0,0,.28-.06.94.94,0,0,1,.41,0,3.35,3.35,0,0,1,1.36.7,3.25,3.25,0,0,1,.5.51l.34.45c.2.27.41.55.65.82a.82.82,0,0,0,1,.34,2.64,2.64,0,0,0,.68-.39,5.67,5.67,0,0,0,.84-.84,4.52,4.52,0,0,1,.7-.7.67.67,0,0,1,.25-.11h0a.68.68,0,0,0-.26.11,4.52,4.52,0,0,0-.7.7,5.53,5.53,0,0,1-.84.83,2.52,2.52,0,0,1-.67.39.81.81,0,0,1-.94-.34c-.24-.28-.44-.55-.64-.82l-.34-.45a3.24,3.24,0,0,0-.51-.51,3.38,3.38,0,0,0-1.37-.7,1,1,0,0,0-.41,0,1.5,1.5,0,0,1-.28.05,1.44,1.44,0,0,1-.78-.11,1.7,1.7,0,0,1-.53-.56l-.17-.23a2.32,2.32,0,0,1-.53-.94,1.37,1.37,0,0,1,.1-.91,2.11,2.11,0,0,1,.27-.32l.19-.21a4.47,4.47,0,0,0,.31-.46,3.29,3.29,0,0,1,.45-.61,1.43,1.43,0,0,1,1-.38,4.32,4.32,0,0,1,1.91.27l.25.08.44.16a3,3,0,0,1,1.17.93h0a.4.4,0,0,0,.35,0,.72.72,0,0,0,.3-.5,2.25,2.25,0,0,0,0-.58,2.29,2.29,0,0,1,0-.54,1.47,1.47,0,0,1,.63-1,2.68,2.68,0,0,1,1.63-.39h0A2.69,2.69,0,0,0,26.53,8.44Z"/><path d="M7.68,1.26a2.23,2.23,0,0,1,0,.75A2.71,2.71,0,0,1,7,3c-.42.44-.85.9-.71,1.51a.77.77,0,0,0,.55.63,2.75,2.75,0,0,0,.93.05,3.29,3.29,0,0,1,1.35.17,3.61,3.61,0,0,1,.73.42,2.29,2.29,0,0,0,.94.46,1,1,0,0,0,.37,0,2.28,2.28,0,0,0,.79-.39,2,2,0,0,1,1.7-.4c.19,0,.37.09.57.15a2.43,2.43,0,0,0,2,0A4.14,4.14,0,0,0,17.62,4.1a9.14,9.14,0,0,1,.59-.8c.27-.31.64-.75,1.09-.6a3.57,3.57,0,0,0,.55.12,2.18,2.18,0,0,1,.85.26,2.27,2.27,0,0,1,.48.46l.21.23a3.78,3.78,0,0,1,.42.54,4.44,4.44,0,0,0,.35.47l.51.45a7.08,7.08,0,0,1,.61.66,2.73,2.73,0,0,0,1.16,1,1.83,1.83,0,0,0,1.07,0,6.06,6.06,0,0,0,.73-.29,9.83,9.83,0,0,0,1.28-.7A1.75,1.75,0,0,0,28.18,5V5a1.73,1.73,0,0,1-.66.81,9.91,9.91,0,0,1-1.28.7,6,6,0,0,1-.73.29,1.84,1.84,0,0,1-1.06,0,2.73,2.73,0,0,1-1.16-1,6.85,6.85,0,0,0-.61-.66l-.51-.45a4.44,4.44,0,0,1-.35-.46,3.92,3.92,0,0,0-.42-.54l-.21-.23a2.24,2.24,0,0,0-.49-.46,2.16,2.16,0,0,0-.86-.26,3.58,3.58,0,0,1-.55-.12c-.46-.15-.83.28-1.11.6a9.38,9.38,0,0,0-.59.8,4.12,4.12,0,0,1-1.45,1.5,2.42,2.42,0,0,1-2,0c-.2-.06-.38-.11-.57-.15a2,2,0,0,0-1.71.4,2.28,2.28,0,0,1-.79.39,1,1,0,0,1-.36,0,2.24,2.24,0,0,1-.93-.46,3.63,3.63,0,0,0-.73-.42A3.31,3.31,0,0,0,7.73,5.2c-.61,0-1.31.07-1.47-.67S6.56,3.47,7,3a2.69,2.69,0,0,0,.71-1,2.17,2.17,0,0,0,0-.76A7.49,7.49,0,0,0,7.43.13l0-.13h0l0,.13A7.35,7.35,0,0,1,7.68,1.26Z"/><path d="M26.72,26.09c0,.26-.07.53-.09.79s0,.45-.07.65h0c0-.21.05-.43.07-.65s0-.53.09-.79A1.69,1.69,0,0,1,28,24.53l.13,0h0l-.13,0A1.71,1.71,0,0,0,26.72,26.09Z"/><path d="M22.91,26.81a6.3,6.3,0,0,0-.32-.81l0,0c-.08-.18-.14-.37-.21-.57a3.1,3.1,0,0,0-.55-1.14,1.49,1.49,0,0,0-1.11-.42A1.75,1.75,0,0,0,20,24a2.08,2.08,0,0,0-.61.4,1.45,1.45,0,0,1-.53.27,2.29,2.29,0,0,0-.38.16,1.22,1.22,0,0,0-.64.81,5.51,5.51,0,0,0,0,1.09c0,.23,0,.48,0,.7,0,0,0,.08,0,.12h0v-.12c0-.22,0-.47,0-.7a5.56,5.56,0,0,1,0-1.09,1.21,1.21,0,0,1,.64-.81,2.37,2.37,0,0,1,.38-.16,1.45,1.45,0,0,0,.54-.27A2.07,2.07,0,0,1,20,24a1.74,1.74,0,0,1,.71-.14,1.48,1.48,0,0,1,1.1.42,3.08,3.08,0,0,1,.55,1.13c.07.2.13.39.21.57l0,0a6.4,6.4,0,0,1,.32.81c0,.15.08.32.12.48l.05.24h0L23,27.29C23,27.13,23,27,22.91,26.81Z"/><path d="M22.31,27a2.88,2.88,0,0,0-.15-.66,1,1,0,0,0-.14-.23A1.24,1.24,0,0,1,21.9,26a2.34,2.34,0,0,1-.12-.29c-.11-.29-.23-.59-.55-.67a1.21,1.21,0,0,0-.3,0l-.41,0h-.14a2.33,2.33,0,0,0-1.19.42,1.63,1.63,0,0,0-.56,1.12,1.84,1.84,0,0,0,0,.92l0,0h0l0,0a1.85,1.85,0,0,1,0-.91,1.62,1.62,0,0,1,.56-1.11A2.34,2.34,0,0,1,20.38,25h.14l.41,0a1.19,1.19,0,0,1,.3,0c.31.08.43.38.54.67a2.65,2.65,0,0,0,.12.29,1.36,1.36,0,0,0,.11.17,1.09,1.09,0,0,1,.14.22,2.9,2.9,0,0,1,.15.66,3.23,3.23,0,0,1,0,.49h0A3.15,3.15,0,0,0,22.31,27Z"/><path d="M28.16,25.48h0c-.62.06-1,.73-1.06,2.05h0c.09-1.32.43-2,1-2h0Z"/><path d="M28,27.15a.92.92,0,0,0-.15.39h0a.93.93,0,0,1,.14-.38.38.38,0,0,1,.16-.06h0a.38.38,0,0,0-.17.06Z"/><path d="M7.21,25.78a2.1,2.1,0,0,1,.55-.83l.14-.15a1.59,1.59,0,0,0,.46-.66.9.9,0,0,0-.49-1,3.58,3.58,0,0,0-.48-.26,2.75,2.75,0,0,1-.6-.36,2,2,0,0,1-.49-.7,1.84,1.84,0,0,1-.11-.41,1.83,1.83,0,0,0-.11-.4,4.6,4.6,0,0,0-1.16-1.71,1.75,1.75,0,0,1-.63-.9,1.17,1.17,0,0,1,.08-.64v0a2.37,2.37,0,0,1,1.36-1.57c.15,0,.33-.07.52-.11a4.07,4.07,0,0,0,.67-.15,2.59,2.59,0,0,0,.7-.42l0,0a1.17,1.17,0,0,1,.8-.33,1.7,1.7,0,0,1,.91.42,1.49,1.49,0,0,1,.53.81c0,.18,0,.32.06.45s0,.23,0,.35a2.22,2.22,0,0,0,.88,1.46,3.58,3.58,0,0,0,1.53.59A3.08,3.08,0,0,0,14.19,19a4.7,4.7,0,0,0,1.24-1.08,1.84,1.84,0,0,0,.63-1.33A4.07,4.07,0,0,0,16,16c0-.08,0-.16,0-.24s0-.12,0-.18a2.39,2.39,0,0,1,0-.63.64.64,0,0,1,.79-.6,1.56,1.56,0,0,1,1.31,1A2,2,0,0,1,18,16.59l0,.06a3.83,3.83,0,0,1-.73,1.45c-.18.21-.37.4-.57.59l-.21.21c-.1.1-.21.19-.32.28a3.49,3.49,0,0,0-.39.36,3.16,3.16,0,0,0-.39.59,8.27,8.27,0,0,0-.7,1.62,1.41,1.41,0,0,1-.95.93,5.33,5.33,0,0,1-2.55-.06,1.1,1.1,0,0,1-.95-.91,1.82,1.82,0,0,0-.89-1.14l-.31-.24c-.43-.35-.21-.68,0-1a1.83,1.83,0,0,0,.25-.48A1.39,1.39,0,0,0,9.22,18a2.68,2.68,0,0,1-.11-.39C9,17,8.9,16.55,8.59,16.35a.78.78,0,0,0-.65,0l-.14,0-.32.09a5.15,5.15,0,0,1-.54.08c-.2,0-.41.05-.63.1a1.66,1.66,0,0,0-.88.48A1.58,1.58,0,0,0,5,18a.89.89,0,0,0,0,.39,2,2,0,0,0,.77.9l.2.16H6c.3.25.67.55.66,1a2.16,2.16,0,0,0,.18,1.05,1.9,1.9,0,0,0,1.1,1l.12.05a5.2,5.2,0,0,1,.57.26,1.48,1.48,0,0,1,.36.3l.19.19a2.18,2.18,0,0,1,.25.27c.21.26.45.55.82.48a1.65,1.65,0,0,0,.57-.3,2.74,2.74,0,0,1,.55-.32,4.86,4.86,0,0,1,1.32-.2c.31,0,.62,0,.92-.09A1.92,1.92,0,0,0,15,22.39a1.67,1.67,0,0,0,.18-.35,2.08,2.08,0,0,1,.13-.28.7.7,0,0,1,.15-.17l.09-.09.15-.18.17-.2c.09-.1.2-.2.3-.29l.28-.27a2.09,2.09,0,0,0,.19-.25,1.78,1.78,0,0,1,.22-.28,3.65,3.65,0,0,0,.43-.49,1.72,1.72,0,0,0,.21-.47l.05-.15a1.58,1.58,0,0,1,.18-.33l.12-.19a6.31,6.31,0,0,0,.34-.73l.07-.2,0-.08.14-.38a8,8,0,0,0,.35-1.08,1.61,1.61,0,0,0,0-.68,2.49,2.49,0,0,0-1.63-1.76,3,3,0,0,0-1.15,0c-.69.13-.95.46-.91,1.19,0,.17,0,.34,0,.51a5,5,0,0,1,0,1,1.77,1.77,0,0,1-.13.47,8.48,8.48,0,0,1-.62,1.12,2.09,2.09,0,0,1-1.05.89,2.47,2.47,0,0,1-2.28-.54,1.36,1.36,0,0,1-.42-1.39.9.9,0,0,1,0-.12.79.79,0,0,0,.06-.16,3.32,3.32,0,0,1,.31-.42,1.14,1.14,0,0,0,.38-1,1.45,1.45,0,0,0-.08-.24c-.07-.17-.14-.35-.06-.46a6.37,6.37,0,0,1,.57-.59,3.22,3.22,0,0,0,.88-1.08,1,1,0,0,0-.21-.84c-.11-.16-.23-.32-.35-.5l-.3-.41-.24-.34-.52-.75L11,9.56c-.11-.18-.23-.36-.34-.52a.84.84,0,0,0-.85-.42,2.68,2.68,0,0,0-.94.52l-.12.09a3.57,3.57,0,0,0-1.33,1.39c-.14.44.12.64.39.86l.09.07a3.38,3.38,0,0,1,.43.43,5.16,5.16,0,0,1,.41.59c.09.14.18.28.26.4a2.46,2.46,0,0,0,1,.73,2.38,2.38,0,0,1,1,.7v0a.37.37,0,0,1,0,.11,1.12,1.12,0,0,1-1.28.28,3.11,3.11,0,0,1-.49-.23A1.55,1.55,0,0,0,8,14.33a1.84,1.84,0,0,0-.76.54,2,2,0,0,1-.75.55,2.63,2.63,0,0,1-.65.1c-.68.05-1,.13-1.29.49a9,9,0,0,0-1,1.64,2,2,0,0,0-.1.31,1.59,1.59,0,0,0,.58,1.41l.25.23.23.2a3.21,3.21,0,0,1,.38.5l.18.26a1.93,1.93,0,0,1,.45,1.73,1.39,1.39,0,0,1-.91,1.09,4.93,4.93,0,0,1-.66.11,6.38,6.38,0,0,0-.67.1c-.19,0-.38.1-.55.16a4.29,4.29,0,0,1-.72.18,3.16,3.16,0,0,1-1.16-.12A2.59,2.59,0,0,0,0,23.71H0a2.58,2.58,0,0,1,.92.1,3.16,3.16,0,0,0,1.17.12,4.29,4.29,0,0,0,.72-.18c.18-.06.36-.11.55-.16A6.33,6.33,0,0,1,4,23.5a5,5,0,0,0,.67-.11,1.36,1.36,0,0,0,.92-1.1,1.94,1.94,0,0,0-.45-1.74L5,20.3a3.15,3.15,0,0,0-.39-.5l-.23-.21-.25-.23A1.58,1.58,0,0,1,3.54,18a1.88,1.88,0,0,1,.1-.31,8.92,8.92,0,0,1,1-1.64c.28-.35.61-.43,1.28-.48a2.54,2.54,0,0,0,.65-.1,2,2,0,0,0,.76-.55A1.78,1.78,0,0,1,8,14.34a1.54,1.54,0,0,1,1.2.28,3.26,3.26,0,0,0,.49.23,1.13,1.13,0,0,0,1.3-.29h0a.35.35,0,0,0,0-.12v0h0a2.4,2.4,0,0,0-1-.71A2.43,2.43,0,0,1,9,13c-.08-.11-.17-.25-.26-.4A5.22,5.22,0,0,0,8.29,12a3.47,3.47,0,0,0-.43-.43l-.09-.07c-.27-.21-.52-.42-.38-.84A3.56,3.56,0,0,1,8.71,9.25l.12-.09a2.65,2.65,0,0,1,.93-.52.83.83,0,0,1,.84.41c.12.15.23.34.34.51l.2.32.52.75.24.34.3.41c.13.17.25.34.35.5a1,1,0,0,1,.21.83,3.23,3.23,0,0,1-.87,1.07,6.5,6.5,0,0,0-.57.59c-.09.11,0,.3.06.47a1.45,1.45,0,0,1,.08.24,1.13,1.13,0,0,1-.38,1,3.36,3.36,0,0,0-.31.42h0a.79.79,0,0,1-.06.16,1,1,0,0,0,0,.12,1.39,1.39,0,0,0,.42,1.4,2.48,2.48,0,0,0,2.29.54,2.11,2.11,0,0,0,1.06-.9,8.39,8.39,0,0,0,.63-1.12,1.79,1.79,0,0,0,.13-.47,5.09,5.09,0,0,0,0-1c0-.17,0-.34,0-.51a1.21,1.21,0,0,1,.18-.81,1.11,1.11,0,0,1,.72-.37,3,3,0,0,1,1.14,0,2.47,2.47,0,0,1,1.62,1.75,1.6,1.6,0,0,1,0,.67A7.83,7.83,0,0,1,18.42,17l-.14.38,0,.09-.07.2a6.09,6.09,0,0,1-.34.73l-.12.19a1.6,1.6,0,0,0-.19.34l-.05.15a1.64,1.64,0,0,1-.21.46,3.64,3.64,0,0,1-.43.49,1.91,1.91,0,0,0-.22.28,2,2,0,0,1-.19.25c-.09.09-.19.18-.28.27s-.21.19-.3.29l-.17.2-.15.18-.09.09a.71.71,0,0,0-.15.17,2,2,0,0,0-.13.28,1.73,1.73,0,0,1-.17.35,1.91,1.91,0,0,1-1.36.7c-.29,0-.61.07-.91.09a4.85,4.85,0,0,0-1.33.2,2.73,2.73,0,0,0-.55.32,1.62,1.62,0,0,1-.57.3c-.36.07-.6-.22-.8-.48a2.21,2.21,0,0,0-.25-.27L9,23.06a1.5,1.5,0,0,0-.36-.3,5.21,5.21,0,0,0-.57-.26L8,22.44a1.89,1.89,0,0,1-1.09-1,2.14,2.14,0,0,1-.18-1c0-.43-.36-.74-.66-1H6l-.2-.16A1.94,1.94,0,0,1,5,18.36.88.88,0,0,1,5,18a1.57,1.57,0,0,1,1.28-1.34c.23,0,.43-.07.63-.1s.37,0,.54-.09l.33-.09.14,0a.77.77,0,0,1,.64,0c.3.19.41.67.51,1.28a2.69,2.69,0,0,0,.11.4,1.4,1.4,0,0,1,.11.79,1.88,1.88,0,0,1-.25.48c-.23.36-.44.69,0,1l.31.24a1.81,1.81,0,0,1,.88,1.13,1.11,1.11,0,0,0,1,.92,5.31,5.31,0,0,0,2.55.07,1.41,1.41,0,0,0,1-.94,8.21,8.21,0,0,1,.7-1.62,3.21,3.21,0,0,1,.39-.58,3.42,3.42,0,0,1,.39-.36c.11-.09.22-.18.32-.28l.21-.21c.19-.19.39-.39.57-.59A3.82,3.82,0,0,0,18,16.65l0-.06a2,2,0,0,0,.07-1.27,1.58,1.58,0,0,0-1.32-1,.65.65,0,0,0-.8.61,2.34,2.34,0,0,0,0,.63v.18L16,16a4.18,4.18,0,0,1,0,.62,1.84,1.84,0,0,1-.62,1.32A4.71,4.71,0,0,1,14.19,19a3.07,3.07,0,0,1-1.77.25,2.55,2.55,0,0,1-2.4-2c0-.12,0-.23,0-.35s0-.28-.06-.46a1.5,1.5,0,0,0-.54-.82,1.71,1.71,0,0,0-.92-.42,1.18,1.18,0,0,0-.81.33l0,0a2.6,2.6,0,0,1-.7.42,4.35,4.35,0,0,1-.67.15c-.19,0-.37.07-.52.11a2.39,2.39,0,0,0-1.37,1.58v0a1.18,1.18,0,0,0-.08.65,1.76,1.76,0,0,0,.64.91,4.55,4.55,0,0,1,1.16,1.71,1.81,1.81,0,0,1,.11.4,1.83,1.83,0,0,0,.12.42,2,2,0,0,0,.49.7,2.67,2.67,0,0,0,.6.36,3.54,3.54,0,0,1,.47.26.89.89,0,0,1,.49.94,1.56,1.56,0,0,1-.46.66l-.14.15a2.08,2.08,0,0,0-.55.83,2.38,2.38,0,0,0,0,1c.06.26.12.51.19.75h0c-.07-.24-.14-.49-.19-.75A2.39,2.39,0,0,1,7.21,25.78Z"/></g></g></svg>