<svg id="_01" data-name="01" xmlns="http://www.w3.org/2000/svg" viewBox="0 0 160 90"><defs><style>.cls-1{fill:#fff;}.cls-2{fill:none;}</style></defs><title>Logos</title><path id="Adidias" class="cls-1" d="M104.55,55.31h-2.16a1.45,1.45,0,0,0-.31-.75,1.63,1.63,0,0,0-1.17-.35,1.75,1.75,0,0,0-1.12.27.69.69,0,0,0-.24.55c0,.33.46.59,1.36.79a21.52,21.52,0,0,1,2.22.57l.3.12a2.09,2.09,0,0,1,1.37,2,2.5,2.5,0,0,1-1.34,2.35l-.34.16a5.05,5.05,0,0,1-2,.37,5.48,5.48,0,0,1-2.73-.6,2.58,2.58,0,0,1-1-1,2.69,2.69,0,0,1-.33-1.35h2.27a1.07,1.07,0,0,0,.42.9,2.33,2.33,0,0,0,1.41.33,1.7,1.7,0,0,0,1.12-.31.7.7,0,0,0,.28-.55c0-.35-.45-.63-1.34-.82a14.54,14.54,0,0,1-2.51-.68,2.08,2.08,0,0,1-1.36-2,2.6,2.6,0,0,1,.71-1.86,3.51,3.51,0,0,1,2.68-.95,5.6,5.6,0,0,1,2.35.42l.14.08a2.36,2.36,0,0,1,1,.92A2.73,2.73,0,0,1,104.55,55.31ZM103.4,50a.18.18,0,0,0,0-.11.16.16,0,0,0-.1-.07l-.14,0h-.34v.42h.34a.32.32,0,0,0,.2-.06A.19.19,0,0,0,103.4,50Zm.18-.22a.33.33,0,0,1,.07.2.36.36,0,0,1-.11.27.43.43,0,0,1-.29.13.37.37,0,0,1,.12.07l.21.28.16.28h-.27l-.13-.22a1.28,1.28,0,0,0-.21-.3l0,0-.18-.05h-.13V51h-.22v-1.4h.57a.8.8,0,0,1,.27,0A.33.33,0,0,1,103.57,49.81Zm.63.51a1.08,1.08,0,0,0-.14-.55,1.05,1.05,0,0,0-.4-.4,1.15,1.15,0,0,0-.53-.14h0a1.15,1.15,0,0,0-.53.14,1,1,0,0,0-.4.4,1.06,1.06,0,0,0,0,1.08,1,1,0,0,0,.4.4,1.07,1.07,0,0,0,.54.14h0a1.07,1.07,0,0,0,.54-.14,1,1,0,0,0,.4-.4A1.07,1.07,0,0,0,104.21,50.31Zm.22,0a1.28,1.28,0,0,1-.17.64,1.13,1.13,0,0,1-.48.48,1.25,1.25,0,0,1-.64.17h0a1.25,1.25,0,0,1-.64-.17A1.13,1.13,0,0,1,102,51a1.27,1.27,0,0,1-.17-.64,1.29,1.29,0,0,1,.17-.66,1.2,1.2,0,0,1,.49-.48,1.41,1.41,0,0,1,.63-.17h0a1.32,1.32,0,0,1,.63.17,1.15,1.15,0,0,1,.49.48A1.29,1.29,0,0,1,104.43,50.31ZM91.73,39.77,97.86,50H88l-5.85-9.75-4.43-7.38,4.43-2.66L85,28.5Zm4.45,17.3v4.19h-2v-.46a4.36,4.36,0,0,1-2.39.71h0a4.43,4.43,0,0,1,0-8.87h0a4.36,4.36,0,0,1,2.39.71v-.49h2Zm-2,.46V56.6a2.44,2.44,0,0,0-2.39-2h0a2.44,2.44,0,0,0,0,4.87h0A2.45,2.45,0,0,0,94.14,57.53Zm-7.53-.46v4.19h-2v-.46a4.38,4.38,0,0,1-2.39.71h0a4.43,4.43,0,0,1,0-8.87h0a4.38,4.38,0,0,1,2.39.71V50h2Zm-2,.46V56.6a2.44,2.44,0,0,0-2.39-2h0a2.44,2.44,0,0,0,0,4.87h0A2.45,2.45,0,0,0,84.57,57.53ZM82.16,46l2.4,4H74.73l-5.46-9.09-.24-.4.24-.14,7-4.21Zm-7.43,6.67H77v8.62H74.74Zm0-2.61H77V52H74.74Zm-1,7v4.19h-2v-.46a4.4,4.4,0,0,1-2.4.71h0a4.43,4.43,0,0,1,0-8.87h0a4.41,4.41,0,0,1,2.4.71V50h2Zm-2,.46V56.6a2.44,2.44,0,0,0-2.4-2h0a2.44,2.44,0,0,0,0,4.87h0A2.45,2.45,0,0,0,71.69,57.53ZM69.27,46.62l2,3.36H61.44l-1.1-1.84,7.23-4.34ZM64.06,57.07v4.19H62v-.46a4.4,4.4,0,0,1-2.4.71h0a4.43,4.43,0,0,1,0-8.87h0a4.41,4.41,0,0,1,2.4.71v-.49h2Zm-2,.46V56.6a2.44,2.44,0,0,0-2.4-2h0a2.44,2.44,0,0,0,0,4.87h0A2.45,2.45,0,0,0,62,57.53Z"/><rect class="cls-2" x="-700" y="-3709" width="1440" height="8095"/></svg>